<?xml version="1.0" encoding="UTF-8" standalone="no"?><!DOCTYPE svg PUBLIC "-//W3C//DTD SVG 1.1//EN" "http://www.w3.org/Graphics/SVG/1.1/DTD/svg11.dtd"><svg width="100%" height="100%" viewBox="0 0 232 75" version="1.1" xmlns="http://www.w3.org/2000/svg" xmlns:xlink="http://www.w3.org/1999/xlink" xml:space="preserve" xmlns:serif="http://www.serif.com/" style="fill-rule:evenodd;clip-rule:evenodd;stroke-linejoin:round;stroke-miterlimit:2;"><path d="M232,6.837c0,-3.773 -3.064,-6.837 -6.837,-6.837l-218.326,-0c-3.773,-0 -6.837,3.064 -6.837,6.837l-0,61.326c-0,3.773 3.064,6.837 6.837,6.837l218.326,-0c3.773,-0 6.837,-3.064 6.837,-6.837l0,-61.326Z" style="fill:#940c12;"/><g transform="matrix(33,0,0,33,212.04,50.005)"></g><text x="59.96px" y="50.005px" style="font-family:'Lato-Bold', 'Lato', sans-serif;font-weight:700;font-size:33px;fill:#fff;">Download</text><path d="M19.083,23.666c-2.068,0 -3.75,1.683 -3.75,3.75l-0,19.167c-0,2.068 1.682,3.75 3.75,3.75l25.834,0c2.067,0 3.75,-1.682 3.75,-3.75l-0,-15c-0,-2.067 -1.683,-3.75 -3.75,-3.75l-12.881,0l-3.726,-3.105c-0.822,-0.685 -1.864,-1.062 -2.933,-1.062l-6.294,0Zm11.25,6.667l3.333,0c0.46,0 0.834,0.373 0.834,0.833c-0,0.461 -0.374,0.834 -0.834,0.834l-3.333,-0c-0.46,-0 -0.833,-0.373 -0.833,-0.834c-0,-0.46 0.373,-0.833 0.833,-0.833Zm0,4.167l3.333,-0c0.46,-0 0.834,0.372 0.834,0.833c-0,0.461 -0.374,0.833 -0.834,0.833l-3.333,0c-0.46,0 -0.833,-0.372 -0.833,-0.833c-0,-0.461 0.373,-0.833 0.833,-0.833Zm0.615,4.166l2.103,0c0.369,0 0.696,0.241 0.799,0.596c0.245,0.843 0.65,2.41 0.65,3.571c-0,1.381 -1.119,2.5 -2.5,2.5c-1.381,0 -2.5,-1.119 -2.5,-2.5c-0,-1.161 0.404,-2.728 0.649,-3.571c0.104,-0.355 0.43,-0.596 0.799,-0.596Zm1.052,3.334c-0.457,-0 -0.834,0.376 -0.834,0.833c0,0.457 0.377,0.834 0.834,0.834c0.457,-0 0.833,-0.377 0.833,-0.834c0,-0.457 -0.376,-0.833 -0.833,-0.833Z" style="fill:#fff;fill-rule:nonzero;"/></svg>