<?xml version="1.0" encoding="UTF-8" standalone="no"?><!DOCTYPE svg PUBLIC "-//W3C//DTD SVG 1.1//EN" "http://www.w3.org/Graphics/SVG/1.1/DTD/svg11.dtd"><svg width="100%" height="100%" viewBox="0 0 232 75" version="1.1" xmlns="http://www.w3.org/2000/svg" xmlns:xlink="http://www.w3.org/1999/xlink" xml:space="preserve" xmlns:serif="http://www.serif.com/" style="fill-rule:evenodd;clip-rule:evenodd;stroke-linejoin:round;stroke-miterlimit:2;"><path d="M232,6.837c0,-3.773 -3.064,-6.837 -6.837,-6.837l-218.326,-0c-3.773,-0 -6.837,3.064 -6.837,6.837l-0,61.326c-0,3.773 3.064,6.837 6.837,6.837l218.326,-0c3.773,-0 6.837,-3.064 6.837,-6.837l0,-61.326Z" style="fill:#940c12;"/><g transform="matrix(33,0,0,33,212.04,50.005)"></g><text x="59.96px" y="50.005px" style="font-family:'Lato-Bold', 'Lato', sans-serif;font-weight:700;font-size:33px;fill:#fff;">Download</text><path d="M42.933,23.553c-0.084,0 -0.169,0.009 -0.252,0.027l-0.002,-0.003l-11.799,1.608c-0.533,0.073 -0.93,0.531 -0.93,1.069l0,8.699c0,0.699 0.567,1.266 1.267,1.266l11.716,0c0.7,0 1.267,-0.567 1.267,-1.266l0,-10.134c0,-0.695 -0.572,-1.266 -1.267,-1.266Zm-16.751,2.273l-11.281,1.539c-0.627,0.083 -1.1,0.622 -1.101,1.254l0,6.334c0,0.699 0.567,1.266 1.267,1.266l11.073,0c0.699,0 1.267,-0.567 1.267,-1.266l-0,-8.058c-0,-0.654 -0.576,-1.157 -1.225,-1.069Zm-11.115,12.927c-0.7,-0 -1.267,0.567 -1.267,1.266l0,6.334c0.001,0.647 0.497,1.194 1.14,1.259l11.242,1.534c0.649,0.088 1.225,-0.415 1.225,-1.069l-0,-8.058c-0,-0.699 -0.568,-1.266 -1.267,-1.266l-11.073,-0Zm16.15,-0c-0.7,-0 -1.267,0.567 -1.267,1.266l0,8.699c0,0.538 0.397,0.996 0.93,1.069l11.799,1.608c0,-0 0.001,-0 0.002,-0c0.083,0.016 0.168,0.025 0.252,0.024c0.695,0 1.267,-0.571 1.267,-1.266l0,-10.134c0,-0.699 -0.567,-1.266 -1.267,-1.266l-11.716,-0Z" style="fill:#fff;fill-rule:nonzero;"/></svg>