<?xml version="1.0" encoding="UTF-8" standalone="no"?><!DOCTYPE svg PUBLIC "-//W3C//DTD SVG 1.1//EN" "http://www.w3.org/Graphics/SVG/1.1/DTD/svg11.dtd"><svg width="100%" height="100%" viewBox="0 0 232 75" version="1.1" xmlns="http://www.w3.org/2000/svg" xmlns:xlink="http://www.w3.org/1999/xlink" xml:space="preserve" xmlns:serif="http://www.serif.com/" style="fill-rule:evenodd;clip-rule:evenodd;stroke-linejoin:round;stroke-miterlimit:2;"><path d="M232,6.837c0,-3.773 -3.064,-6.837 -6.837,-6.837l-218.326,-0c-3.773,-0 -6.837,3.064 -6.837,6.837l-0,61.326c-0,3.773 3.064,6.837 6.837,6.837l218.326,-0c3.773,-0 6.837,-3.064 6.837,-6.837l0,-61.326Z" style="fill:#940c12;"/><g transform="matrix(33,0,0,33,212.04,50.005)"></g><text x="59.96px" y="50.005px" style="font-family:'Lato-Bold', 'Lato', sans-serif;font-weight:700;font-size:33px;fill:#fff;">Download</text><path d="M45.451,42.715c-0.798,1.772 -1.183,2.564 -2.209,4.128c-1.437,2.185 -3.463,4.914 -5.966,4.932c-2.229,0.02 -2.804,-1.454 -5.831,-1.428c-3.023,0.014 -3.654,1.456 -5.885,1.433c-2.506,-0.023 -4.423,-2.48 -5.86,-4.662c-4.018,-6.12 -4.443,-13.295 -1.96,-17.11c1.758,-2.706 4.536,-4.296 7.146,-4.296c2.66,0 4.33,1.46 6.527,1.46c2.134,-0 3.432,-1.463 6.507,-1.463c2.324,0 4.781,1.266 6.539,3.452c-5.747,3.151 -4.813,11.357 0.992,13.554Zm-9.866,-19.448c1.118,-1.437 1.968,-3.463 1.659,-5.527c-1.824,0.124 -3.957,1.289 -5.203,2.798c-1.131,1.376 -2.067,3.417 -1.703,5.391c1.992,0.064 4.053,-1.125 5.247,-2.662Z" style="fill:#fff;fill-rule:nonzero;"/></svg>