<?xml version="1.0" encoding="UTF-8" standalone="no"?><!DOCTYPE svg PUBLIC "-//W3C//DTD SVG 1.1//EN" "http://www.w3.org/Graphics/SVG/1.1/DTD/svg11.dtd"><svg width="100%" height="100%" viewBox="0 0 232 75" version="1.1" xmlns="http://www.w3.org/2000/svg" xmlns:xlink="http://www.w3.org/1999/xlink" xml:space="preserve" xmlns:serif="http://www.serif.com/" style="fill-rule:evenodd;clip-rule:evenodd;stroke-linejoin:round;stroke-miterlimit:2;"><path d="M232,6.837c0,-3.773 -3.064,-6.837 -6.837,-6.837l-218.326,-0c-3.773,-0 -6.837,3.064 -6.837,6.837l-0,61.326c-0,3.773 3.064,6.837 6.837,6.837l218.326,-0c3.773,-0 6.837,-3.064 6.837,-6.837l0,-61.326Z" style="fill:#940c12;"/><g transform="matrix(33,0,0,33,212.04,50.005)"></g><text x="59.96px" y="50.005px" style="font-family:'Lato-Bold', 'Lato', sans-serif;font-weight:700;font-size:33px;fill:#fff;">Download</text><path d="M29.091,22.083c-6.624,-0 -11.466,4.354 -11.466,13.875c-0,5.258 2.734,14.67 -1.542,16.959l3.565,-0c1.373,-2.096 1.205,-5.107 1.205,-5.107c-0,-0 -1.638,-2.24 -1.638,-3.421c-0,-2.168 1.734,-3.324 1.734,-3.324c-0,-0 -1.638,-1.554 -1.638,-4.24c-0,-2.324 1.855,-3.372 2.794,-3.372c3.451,-0 3.613,4.047 3.613,4.047l3.277,-0c-0,-0 -0.211,-4.433 3.998,-4.433c1.422,0 3.855,1.247 3.855,4.529c-0,1.849 -0.579,2.987 -0.579,2.987c0,0 2.12,1.132 2.12,3.132c0,1.933 -1.445,3.565 -1.445,3.565l2.409,5.637l7.564,-0c-0,-0 -4.625,-1.867 -4.625,-16.959c-0,-1.15 0.343,-13.875 -13.201,-13.875Zm5.107,3.132c0.391,-0.007 0.831,0.12 1.252,0.385c0.843,0.536 1.271,1.421 0.916,1.975c-0.356,0.554 -1.325,0.584 -2.168,0.048c-0.843,-0.536 -1.271,-1.421 -0.916,-1.975c0.175,-0.277 0.524,-0.427 0.916,-0.433Zm-11.756,10.743c-0.782,0 -1.686,0.566 -1.686,2.264c0,1.518 1.975,2.891 1.975,2.891c0,0 -2.697,1.283 -2.697,3.324c-0,1.121 1.162,2.265 2.312,3.18c1.138,0.934 2.584,2.554 4.529,2.554c2.77,-0 5.076,-2.096 6.311,-2.843c1.235,-0.747 3.71,-1.951 3.71,-3.661c-0,-2.048 -3.806,-2.65 -3.806,-2.65c-0,-0 1.879,-0.602 1.879,-2.602c-0,-1.409 -0.916,-2.457 -2.072,-2.457c-1.674,0 -2.12,1.614 -2.12,2.457c0,0.952 0.386,1.879 0.386,1.879c-0,0 -2.024,-1.204 -4.288,-1.204c-1.211,-0 -2.554,0.819 -2.554,0.819c0,-0 0.145,-0.669 0.145,-1.397c-0,-0.741 -0.434,-2.554 -2.024,-2.554Zm3.325,4.24c0.409,-0.073 -0.049,0.698 -0.53,1.204c-0.187,0.193 -0.819,-0.391 -0.771,-0.53c0.066,-0.144 0.68,-0.542 1.301,-0.674Zm2.216,-0c0.307,-0 0.957,0.156 1.301,0.337c0.259,0.139 0.21,0.879 -0.049,1.012c-0.337,0.168 -1.397,-1.012 -1.397,-1.301c0,-0.048 0.042,-0.048 0.145,-0.048Zm7.371,3.469c0,-0 -4.673,4.625 -8.479,4.625c-3.252,-0 -6.071,-3.517 -6.071,-3.517c0,-0 3.204,1.975 6.071,1.975c3.276,-0 8.479,-3.083 8.479,-3.083Z" style="fill:#fff;fill-rule:nonzero;"/></svg>